<?xml version="1.0" encoding="iso-8859-1"?>
<!-- Uploaded to: SVG Repo, www.svgrepo.com, Generator: SVG Repo Mixer Tools -->
<svg height="800px" width="800px" version="1.1" id="Capa_1" xmlns="http://www.w3.org/2000/svg" xmlns:xlink="http://www.w3.org/1999/xlink" 
	 viewBox="0 0 42.961 42.961" xml:space="preserve">
<g>
	<g>
		<path style="fill:#030104;" d="M13.828,14.005L11.89,14c-0.615,0-0.923-0.193-0.923-0.581c0-0.437,0.343-0.654,1.03-0.654
			c0.065,0,0.137,0.002,0.215,0.005V8.439c-0.283,0.195-0.467,0.293-0.552,0.293c-0.182,0-0.341-0.065-0.476-0.195
			s-0.203-0.281-0.203-0.454c0-0.179,0.109-0.363,0.327-0.552l0.552-0.4l0.596-0.479c0.244-0.176,0.48-0.264,0.708-0.264
			c0.293,0,0.439,0.176,0.439,0.527c0,0.388-0.016,0.933-0.049,1.636c-0.033,0.703-0.049,1.707-0.049,3.013v1.182h0.322
			c0.189,0,0.348,0.061,0.476,0.181c0.128,0.12,0.193,0.271,0.193,0.449s-0.064,0.329-0.193,0.449S14.017,14.005,13.828,14.005z"/>
		<path style="fill:#030104;" d="M14.736,24.627c-0.082,0-0.208-0.015-0.378-0.041c-0.171-0.028-0.294-0.042-0.369-0.042
			l-1.436-0.005c-0.124,0-0.311,0.016-0.562,0.047c-0.25,0.03-0.439,0.046-0.566,0.046c-0.036,0-0.088-0.007-0.156-0.02
			c-0.068-0.014-0.121-0.021-0.156-0.021c-0.293,0-0.492-0.118-0.596-0.356c-0.065-0.148-0.098-0.381-0.098-0.692
			c0-0.608,0.135-1.118,0.405-1.528c0.208-0.315,0.545-0.632,1.011-0.947c0.439-0.29,0.877-0.578,1.313-0.864
			c0.514-0.374,0.771-0.799,0.771-1.274c0-0.124-0.103-0.247-0.308-0.368c-0.205-0.123-0.405-0.184-0.601-0.184
			c-0.345,0-0.71,0.154-1.096,0.461c-0.386,0.309-0.65,0.462-0.793,0.462c-0.172,0-0.324-0.042-0.454-0.127
			c-0.163-0.104-0.244-0.249-0.244-0.435c0-0.198,0.082-0.369,0.244-0.513c0.394-0.349,0.737-0.603,1.03-0.762
			c0.423-0.231,0.861-0.347,1.313-0.347c0.563,0,1.071,0.148,1.523,0.444c0.518,0.339,0.776,0.781,0.776,1.328
			c0,0.554-0.127,1.023-0.381,1.411c-0.199,0.31-0.513,0.61-0.942,0.903c-0.407,0.257-0.814,0.513-1.221,0.767
			c-0.619,0.403-0.951,0.864-0.996,1.383c0.179-0.022,0.443-0.05,0.791-0.078c0.693-0.037,1.19-0.055,1.489-0.055
			c0.28,0,0.557,0.061,0.83,0.182c0.338,0.148,0.508,0.342,0.508,0.576c0,0.168-0.06,0.316-0.181,0.443
			C15.083,24.56,14.925,24.627,14.736,24.627z"/>
		<path style="fill:#030104;" d="M14.292,31.065c0.67,0.375,1.006,0.975,1.006,1.797c0,0.664-0.246,1.229-0.737,1.689
			c-0.491,0.461-1.089,0.693-1.792,0.693c-0.524,0-0.996-0.105-1.416-0.317c-0.485-0.247-0.812-0.599-0.981-1.055
			c-0.026-0.068-0.039-0.142-0.039-0.22c0-0.184,0.073-0.334,0.22-0.455c0.137-0.109,0.293-0.165,0.469-0.165
			c0.205,0,0.37,0.081,0.493,0.243c0.208,0.281,0.329,0.434,0.361,0.459c0.202,0.164,0.5,0.244,0.894,0.244
			c0.309,0,0.58-0.093,0.813-0.277c0.233-0.186,0.349-0.408,0.349-0.669c0-0.812-0.545-1.271-1.636-1.378
			c-0.479-0.045-0.718-0.245-0.718-0.601c0-0.271,0.186-0.467,0.557-0.591c0.352-0.078,0.702-0.158,1.05-0.238
			c0.221-0.068,0.387-0.158,0.498-0.27c0.111-0.111,0.167-0.242,0.171-0.396c0.013-0.484-0.366-0.728-1.138-0.728
			c-0.254,0-0.532,0.097-0.835,0.29s-0.509,0.291-0.62,0.291c-0.186,0-0.343-0.066-0.474-0.2s-0.195-0.285-0.195-0.454
			c0-0.275,0.273-0.552,0.82-0.824c0.488-0.244,0.885-0.367,1.191-0.367c0.739,0,1.333,0.16,1.782,0.479
			c0.492,0.353,0.737,0.853,0.737,1.504c0,0.358-0.069,0.663-0.208,0.916C14.776,30.721,14.569,30.92,14.292,31.065z"/>
		<path style="fill:#030104;" d="M36.001,0C30.107,0,24.215,0,18.32,0c-3.787,0-7.574,0-11.361,0c-0.545,0-1,0.455-1,1
			c0,4.934,0,9.869,0,14.803c0,7.466,0,14.933,0,22.397c0,1.254,0,2.507,0,3.761c0,0.545,0.455,1,1,1c5.894,0,11.787,0,17.682,0
			c3.786,0,7.573,0,11.36,0c0.272,0,0.476-0.103,0.634-0.243c0.023-0.02,0.049-0.033,0.07-0.054c0.02-0.021,0.031-0.043,0.049-0.063
			c0.145-0.158,0.247-0.363,0.247-0.64c0-4.935,0-9.869,0-14.803c0-7.466,0-14.932,0-22.397c0-1.254,0-2.507,0-3.761
			C37.001,0.455,36.547,0,36.001,0z M18.32,40.961c-3.453,0-6.907,0-10.361,0c0-4.603,0-9.202,0-13.803c0-7.466,0-14.932,0-22.397
			c0-0.92,0-1.84,0-2.761c5.561,0,11.121,0,16.682,0c3.453,0,6.906,0,10.36,0c0,4.601,0,9.203,0,13.803c0,7.466,0,14.933,0,22.397
			c0,0.921,0,1.841,0,2.761C29.439,40.961,23.882,40.961,18.32,40.961z"/>
		<path style="fill:#030104;" d="M18.334,11.544c4.333,0,8.667,0,13,0c0.967,0,0.967-1.5,0-1.5c-4.333,0-8.667,0-13,0
			C17.368,10.044,17.368,11.544,18.334,11.544z"/>
		<path style="fill:#030104;" d="M31.334,20.044c-4.333,0-8.667,0-13,0c-0.967,0-0.967,1.5,0,1.5c4.333,0,8.667,0,13,0
			C32.301,21.544,32.301,20.044,31.334,20.044z"/>
		<path style="fill:#030104;" d="M31.334,31.044c-4.333,0-8.667,0-13,0c-0.967,0-0.967,1.5,0,1.5c4.333,0,8.667,0,13,0
			C32.301,32.544,32.301,31.044,31.334,31.044z"/>
	</g>
</g>
</svg>